<svg id="Capa_1" enable-background="new 0 0 509.461 509.461" height="512" viewBox="0 0 509.461 509.461" width="512" xmlns="http://www.w3.org/2000/svg"><g><path d="m334.537 0h-159.613l-115.193 82.281v181.18c0 116.139 78.69 216.924 191.362 245.092l3.638.909 3.638-.909c112.671-28.169 191.362-128.954 191.362-245.093v-181.179zm-150 30h140.387l81.079 57.914-30 15.438-60.693-43.352h-121.158l-60.693 43.353-30-15.438zm175.194 98.596v134.864c0 67.823-41.983 128.3-105 152.096-63.016-23.796-105-84.272-105-152.096v-134.864l54.034-38.596h101.932zm-105 349.91c-97.342-26.062-165-113.954-165-215.046v-148.872l30 15.439v133.433c0 82.379 52.302 155.611 130.148 182.228l4.852 1.659 4.852-1.659c77.846-26.617 130.148-99.848 130.148-182.228v-133.433l30-15.439v148.872c0 101.092-67.658 188.984-165 215.046z"/><path d="m244.124 248.787-27.648-27.648-21.213 21.213 48.861 48.861 70.895-70.895-21.213-21.213z"/></g></svg>